<svg width="50" height="49" viewBox="0 0 50 49" fill="none" xmlns="http://www.w3.org/2000/svg">
<g clip-path="url(#clip0_39:371)">
<path opacity="0.99" d="M6.42644 -0.001468C6.21937 -0.00133148 6.02082 0.0782324 5.87439 0.21975C5.72797 0.361267 5.64565 0.553167 5.64551 0.753303V47.5837C5.64565 47.7838 5.72797 47.9757 5.87439 48.1172C6.02082 48.2588 6.21937 48.3383 6.42644 48.3385H43.5775C43.7846 48.3383 43.9831 48.2588 44.1296 48.1172C44.276 47.9757 44.3583 47.7838 44.3584 47.5837V15.3302C44.3596 15.1324 44.2804 14.9421 44.1379 14.8001L29.4968 0.292374V0.286622C29.478 0.266394 29.4581 0.247161 29.4372 0.229006C29.4165 0.208617 29.3946 0.189381 29.3716 0.171391C29.3488 0.1528 29.3249 0.135488 29.3001 0.119537C29.277 0.10488 29.2531 0.0914172 29.2285 0.0792051C29.2148 0.0730536 29.2009 0.0672887 29.1868 0.0619182C29.1615 0.0509905 29.1356 0.0413702 29.1093 0.0330975C29.0955 0.0288801 29.0816 0.0250337 29.0676 0.021563C29.0616 0.0214961 29.0556 0.0214961 29.0496 0.021563C29.0123 0.0131274 28.9744 0.00735001 28.9363 0.00427673C28.9225 0.00199704 28.9085 7.8802e-05 28.8946 -0.00147574C28.8886 -0.00154259 28.8826 -0.00154259 28.8766 -0.00147574H28.8528L6.42644 -0.001468ZM7.20738 1.50807H28.543L42.7966 15.6355V46.8289H7.20738V1.50807Z" fill="black"/>
<path opacity="0.99" d="M28.8535 -0.00153356C28.6506 0.00458728 28.4581 0.0867852 28.3168 0.22766C28.1755 0.368535 28.0964 0.557029 28.0964 0.753238V15.3301C28.0965 15.5303 28.1788 15.7222 28.3253 15.8637C28.4717 16.0052 28.6702 16.0848 28.8773 16.0849H43.578C43.7322 16.0855 43.8832 16.0419 44.0119 15.9598C44.1407 15.8776 44.2413 15.7604 44.3012 15.623C44.3612 15.4856 44.3777 15.3341 44.3487 15.1877C44.3197 15.0412 44.2465 14.9064 44.1383 14.8L29.4377 0.228931C29.3622 0.153376 29.2713 0.0938565 29.1707 0.0541745C29.0701 0.0144924 28.9621 -0.00448042 28.8535 -0.00153356ZM29.6582 2.61424L41.73 14.5753H29.6582V2.61424Z" fill="black"/>
<path opacity="0.99" d="M19.6216 36.5421C19.6216 37.0191 19.5403 37.4494 19.3775 37.8329C19.2147 38.2165 18.9808 38.5435 18.6756 38.814C18.3755 39.0844 18.0042 39.2934 17.5617 39.4409C17.1242 39.5885 16.6003 39.6623 15.99 39.6623H14.8684V43.0996C14.8684 43.1389 14.8557 43.1734 14.8303 43.2029C14.8099 43.2324 14.7743 43.2569 14.7235 43.2766C14.6777 43.2915 14.6116 43.3038 14.5251 43.3135C14.4437 43.3284 14.3395 43.3358 14.2123 43.3358C14.0851 43.3358 13.9783 43.3284 13.8919 43.3135C13.8105 43.3036 13.7443 43.2913 13.6935 43.2766C13.6426 43.257 13.607 43.2324 13.5867 43.2029C13.5663 43.1734 13.5562 43.1389 13.5562 43.0996V34.2923C13.5562 34.0956 13.6096 33.9555 13.7164 33.8719C13.8232 33.7883 13.9427 33.7465 14.075 33.7465H16.1883C16.402 33.7465 16.6054 33.7563 16.7987 33.776C16.9971 33.7908 17.2285 33.8277 17.493 33.8866C17.7626 33.9407 18.0347 34.0464 18.3094 34.2038C18.5891 34.3563 18.8256 34.5456 19.0189 34.7718C19.2122 34.998 19.3597 35.2611 19.4614 35.561C19.5682 35.8561 19.6216 36.1831 19.6216 36.5421V36.5421ZM18.2407 36.6453C18.2407 36.2568 18.1644 35.9323 18.0118 35.6717C17.8643 35.411 17.6787 35.2168 17.4549 35.0889C17.2361 34.9611 17.0072 34.8799 16.7682 34.8455C16.5342 34.8111 16.3053 34.7939 16.0815 34.7939H14.8684V38.6222H16.051C16.4477 38.6222 16.7758 38.573 17.0352 38.4746C17.2997 38.3763 17.521 38.2411 17.699 38.069C17.877 37.8919 18.0118 37.6829 18.1034 37.442C18.1949 37.1961 18.2407 36.9305 18.2407 36.6453V36.6453ZM29.2349 38.3788C29.2349 39.2049 29.1255 39.9278 28.9068 40.5474C28.6881 41.1621 28.3677 41.6735 27.9455 42.0817C27.5284 42.4849 27.0147 42.7873 26.4043 42.9889C25.794 43.1906 25.0666 43.2914 24.2223 43.2914H22.1318C22.0148 43.2914 21.9029 43.2545 21.7961 43.1807C21.6943 43.102 21.6435 42.9668 21.6435 42.775V34.2628C21.6435 34.071 21.6943 33.9382 21.7961 33.8645C21.9029 33.7858 22.0148 33.7465 22.1318 33.7465H24.3672C25.2217 33.7465 25.944 33.8546 26.534 34.071C27.124 34.2825 27.6174 34.5898 28.0141 34.9931C28.416 35.3914 28.7186 35.8757 28.9221 36.4462C29.1306 37.0166 29.2349 37.6608 29.2349 38.3788V38.3788ZM27.8539 38.4304C27.8539 37.9141 27.7878 37.4346 27.6556 36.992C27.5233 36.5445 27.3148 36.1585 27.0299 35.834C26.7502 35.5094 26.3941 35.2561 25.9618 35.0742C25.5295 34.8923 24.9725 34.8013 24.2909 34.8013H22.9558V42.2292H24.3062C24.9369 42.2292 25.4684 42.153 25.9008 42.0005C26.3331 41.8481 26.6942 41.6145 26.9842 41.2998C27.2741 40.9851 27.4903 40.5917 27.6327 40.1196C27.7802 39.6426 27.8539 39.0795 27.8539 38.4304H27.8539ZM36.4448 34.2923C36.4448 34.3857 36.4397 34.4669 36.4294 34.5357C36.4192 34.6046 36.4014 34.6611 36.376 34.7054C36.3506 34.7447 36.3201 34.7742 36.2845 34.7939C36.254 34.8136 36.2209 34.8234 36.1853 34.8234H32.569V38.069H35.987C36.0226 38.069 36.0557 38.0788 36.0862 38.0985C36.1218 38.1133 36.1523 38.1404 36.1778 38.1796C36.2032 38.219 36.221 38.2731 36.2312 38.3419C36.2414 38.4058 36.2465 38.4894 36.2465 38.5927C36.2465 38.6861 36.2414 38.7673 36.2312 38.8361C36.221 38.9 36.2032 38.9541 36.1778 38.9984C36.1523 39.0377 36.1218 39.0697 36.0862 39.0943C36.0557 39.114 36.0226 39.1238 35.987 39.1238H32.569V43.0996C32.569 43.134 32.5588 43.1685 32.5385 43.2029C32.5181 43.2324 32.4825 43.257 32.4317 43.2766C32.3808 43.2915 32.3147 43.3038 32.2333 43.3135C32.1519 43.3284 32.0451 43.3358 31.9128 43.3358C31.7908 43.3358 31.6865 43.3284 31.6 43.3135C31.5136 43.3036 31.4449 43.2913 31.394 43.2766C31.3432 43.257 31.3076 43.2324 31.2872 43.2029C31.2669 43.1684 31.2567 43.134 31.2567 43.0996V34.2628C31.2567 34.071 31.3076 33.9383 31.4093 33.8645C31.5162 33.7858 31.6281 33.7465 31.745 33.7465H36.1854C36.2211 33.7465 36.2541 33.7563 36.2846 33.776C36.3202 33.7956 36.3507 33.8276 36.3762 33.8719C36.4016 33.9161 36.4194 33.9751 36.4296 34.0489C36.4398 34.1177 36.4449 34.1989 36.4449 34.2923L36.4448 34.2923Z" fill="black"/>
</g>
<defs>
<clipPath id="clip0_39:371">
<rect width="50" height="48.3402" fill="white"/>
</clipPath>
</defs>
</svg>
