<svg width="51" height="51" viewBox="0 0 51 51" fill="none" xmlns="http://www.w3.org/2000/svg">
<path d="M14.4191 0.00191538C14.249 0.0580681 14.1019 0.169077 14.0005 0.317701C13.8991 0.466325 13.849 0.644326 13.8579 0.824464V3.29211H13.0415C12.9906 3.28728 12.9394 3.28728 12.8885 3.29211C12.6994 3.32845 12.5292 3.43099 12.4079 3.58149C12.2865 3.73198 12.2218 3.92077 12.2252 4.11466V6.5824H9.72528C9.67437 6.57757 9.62313 6.57757 9.57222 6.5824C9.38319 6.61875 9.21297 6.72108 9.09162 6.87158C8.97026 7.02208 8.90557 7.21107 8.90897 7.40495V9.10145L2.1744 2.6752L0.796875 1.39007V3.29211V8.2275V9.87259V11.5177V13.1628V14.8079V16.453V18.0981V19.7432V21.3883V23.0334V24.6785V26.3236V27.9687V29.6137V31.2588V32.9039V34.549V36.1941V37.8392V39.4843V41.1294V42.7745V44.4196V46.0647V48.5324V49.3549H1.61319H16.3578V50.1775V51H17.9904V50.1775V49.3549H29.7249L30.2861 50.5373C30.3567 50.6659 30.4602 50.773 30.5858 50.8476C30.7114 50.9222 30.8546 50.9616 31.0004 50.9616C31.1462 50.9616 31.2893 50.9222 31.4149 50.8476C31.5406 50.773 31.644 50.6659 31.7147 50.5373L32.3269 49.3549H48.9592H51L49.5204 47.9154L37.6839 36.6054L35.184 34.2406L35.0819 34.1386V7.45716C35.0825 7.44017 35.0825 7.42315 35.0819 7.40615C35.0868 7.35472 35.0868 7.30296 35.0819 7.25152V4.93811C35.0819 3.12949 33.6115 1.64792 31.8167 1.64792H30.1841C28.3892 1.64792 26.9188 3.12949 26.9188 4.93811V7.25152C26.914 7.30296 26.914 7.35472 26.9188 7.40615C26.914 7.45759 26.914 7.50935 26.9188 7.56078V26.3252L25.8474 25.297L21.6128 21.2871C21.738 21.2142 21.8417 21.1093 21.9134 20.9828C21.9851 20.8564 22.0222 20.713 22.021 20.5673V4.11636C22.0209 3.89822 21.9349 3.68895 21.7818 3.5347C21.6288 3.38044 21.4211 3.29384 21.2046 3.29381H20.3883V0.826171C20.3883 0.608024 20.3023 0.398756 20.1492 0.244503C19.9961 0.0902499 19.7885 0.0036441 19.572 0.00362233H14.6742C14.6233 -0.00120744 14.572 -0.00120744 14.5211 0.00362233C14.4871 0.00147839 14.453 0.00147839 14.4191 0.00362233V0.00191538ZM15.4905 1.64701H18.7557V3.29211H15.4905V1.64701ZM30.1841 3.29211H31.8167C32.7353 3.29211 33.4493 4.01151 33.4493 4.9372V6.5824H28.5514V4.9372C28.5514 4.01151 29.2655 3.29211 30.1841 3.29211ZM13.8579 4.9372H20.3883V6.5824H14.0109H13.8579V4.9372ZM2.4295 5.19435L8.90897 11.3635V17.2755C8.90743 17.3845 8.92742 17.4927 8.96775 17.5938C9.00809 17.695 9.06797 17.7871 9.14393 17.8647C9.21988 17.9424 9.31039 18.004 9.41019 18.0461C9.50999 18.0881 9.61709 18.1097 9.72528 18.1097C9.83346 18.1097 9.94056 18.0881 10.0404 18.0461C10.1402 18.004 10.2307 17.9424 10.3066 17.8647C10.3826 17.7871 10.4425 17.695 10.4828 17.5938C10.5231 17.4927 10.5431 17.3845 10.5416 17.2755V12.9571L12.2252 14.5508V20.5657C12.2253 20.7839 12.3113 20.993 12.4643 21.1473C12.6174 21.3015 12.825 21.3882 13.0415 21.3883H13.8579V25.0383L10.3375 21.7481L8.95998 20.4629V22.365V38.7132V39.5357H9.7763H13.8579V41.952C13.8579 42.1701 13.9439 42.3793 14.097 42.5335C14.25 42.6878 14.4577 42.7745 14.6742 42.7745H14.9293V45.2422C14.9293 45.4603 15.0153 45.6695 15.1684 45.8237C15.3215 45.978 15.5291 46.0647 15.7456 46.0647H16.3578V46.8873V47.7098H2.4295V46.0647H4.87843H5.69474V44.4196H4.87843H2.4295V42.7745H3.24581H4.06212V41.1294H3.24581H2.4295V39.4843H4.87843H5.69474V37.8392H4.87843H2.4295V36.1941H3.24581H4.06212V34.549H3.24581H2.4295V32.9039H4.87843H5.69474V31.2588H4.87843H2.4295V29.6137H3.24581H4.06212V27.9687H3.24581H2.4295V26.3236H4.87843H5.69474V24.6785H4.87843H2.4295V23.0334H3.24581H4.06212V21.3883H3.24581H2.4295V19.7432H4.87843H5.69474V18.0981H4.87843H2.4295V16.453H3.24581H4.06212V14.8079H3.24581H2.4295V13.1628H4.87843H5.69474V11.5177H4.87843H2.4295V9.87259H3.24581H4.06212V8.2275H3.24581H2.4295V5.19435ZM10.5416 8.2275H12.2252V12.2374L10.5416 10.6437V8.2275ZM13.8579 8.2275H14.0109H20.3883V19.7432H14.8782C14.7607 19.7166 14.6387 19.7166 14.5211 19.7432H13.8579V8.2275ZM28.5514 8.2275H30.1841V42.7745H28.5514V8.2275ZM31.8167 8.2275H33.4493V42.7745H31.8167V8.2275ZM15.4905 21.3883H18.7557V41.1294H15.4905V21.3883ZM20.3883 22.365L24.725 26.4778L26.9188 28.5856V37.1709L20.4394 31.156L20.3883 31.105V22.3654V22.365ZM10.5926 24.2672L13.6028 27.0433L13.8579 27.3003V37.8906H10.5926V24.2672ZM20.3883 33.3666L25.2352 37.8906H20.3883V33.3666ZM35.0819 36.3998L36.5615 37.7878L46.9695 47.7098H33.1432L34.9799 43.9569C34.9976 43.9407 35.0147 43.9237 35.0309 43.9059C35.033 43.872 35.033 43.8379 35.0309 43.8039C35.0314 43.7869 35.0314 43.7699 35.0309 43.7529C35.053 43.7032 35.0701 43.6514 35.0819 43.5983C35.0825 43.5813 35.0825 43.5643 35.0819 43.5473V36.4014V36.3998ZM20.3883 39.5357H26.9188V43.4428C26.9167 43.4768 26.9167 43.5109 26.9188 43.5449V43.5959C26.914 43.6473 26.914 43.6991 26.9188 43.7505C26.9351 43.7682 26.9521 43.7853 26.9698 43.8015C26.9678 43.8355 26.9678 43.8695 26.9698 43.9035C26.9861 43.9213 27.0031 43.9383 27.0209 43.9545C27.0558 44.0489 27.1077 44.1359 27.1739 44.2114L28.9086 47.7072H17.9904V46.8846V46.0621H18.6027C18.8191 46.0621 19.0268 45.9756 19.1799 45.8213C19.3329 45.6671 19.4189 45.4577 19.419 45.2396V42.7719H19.572C19.7885 42.7719 19.9961 42.6854 20.1492 42.5311C20.3023 42.3769 20.3883 42.1675 20.3883 41.9494V39.5333V39.5357ZM16.5619 42.7745H17.7863V44.4196H16.5619V42.7745ZM29.0106 44.4196H32.9901L31.0004 48.3781L29.0106 44.4196Z" fill="black"/>
</svg>
