<svg width="53" height="53" viewBox="0 0 53 53" fill="none" xmlns="http://www.w3.org/2000/svg">
<path d="M31.4688 28.1562H29.8125V33.125H31.4688V28.1562Z" fill="black"/>
<path d="M34.7812 28.1562H33.125V33.125H34.7812V28.1562Z" fill="black"/>
<path d="M38.0938 28.1562H36.4375V33.125H38.0938V28.1562Z" fill="black"/>
<path d="M41.4062 28.1562H39.75V33.125H41.4062V28.1562Z" fill="black"/>
<path d="M44.7188 28.1562H43.0625V33.125H44.7188V28.1562Z" fill="black"/>
<path d="M48.0312 28.1562H46.375V33.125H48.0312V28.1562Z" fill="black"/>
<path d="M50.5156 39.75H27.3281C27.1085 39.75 26.8979 39.8372 26.7426 39.9926C26.5872 40.1479 26.5 40.3585 26.5 40.5781V50.5156C26.5 50.7353 26.5872 50.9459 26.7426 51.1012C26.8979 51.2565 27.1085 51.3438 27.3281 51.3438H50.5156C50.7353 51.3438 50.9459 51.2565 51.1012 51.1012C51.2565 50.9459 51.3438 50.7353 51.3438 50.5156V40.5781C51.3438 40.3585 51.2565 40.1479 51.1012 39.9926C50.9459 39.8372 50.7353 39.75 50.5156 39.75ZM49.6875 49.6875H28.1562V41.4062H49.6875V49.6875Z" fill="black"/>
<path d="M31.4688 43.0625H29.8125V48.0312H31.4688V43.0625Z" fill="black"/>
<path d="M34.7812 43.0625H33.125V48.0312H34.7812V43.0625Z" fill="black"/>
<path d="M38.0938 43.0625H36.4375V48.0312H38.0938V43.0625Z" fill="black"/>
<path d="M41.4062 43.0625H39.75V48.0312H41.4062V43.0625Z" fill="black"/>
<path d="M44.7188 43.0625H43.0625V48.0312H44.7188V43.0625Z" fill="black"/>
<path d="M48.0312 43.0625H46.375V48.0312H48.0312V43.0625Z" fill="black"/>
<path d="M48.0312 21.5312H42.8803L42.2095 18.8456C42.1647 18.6666 42.0613 18.5076 41.9157 18.394C41.7702 18.2804 41.5909 18.2188 41.4062 18.2188H39.75V6.625H40.5781C41.237 6.625 41.8689 6.36325 42.3348 5.89734C42.8008 5.43143 43.0625 4.79952 43.0625 4.14062C43.0625 3.48173 42.8008 2.84982 42.3348 2.38391C41.8689 1.918 41.237 1.65625 40.5781 1.65625H35.6094C35.4237 1.65935 35.2447 1.72632 35.1026 1.84589L35.0943 1.83595L7.98727 23.3614C7.12106 23.6041 6.35767 24.1228 5.81291 24.8387C5.26816 25.5545 4.97179 26.4286 4.96875 27.3281V37.2656H4.14062C3.92099 37.2656 3.71036 37.3529 3.55505 37.5082C3.39975 37.6635 3.3125 37.8741 3.3125 38.0938V46.6913L2.1142 47.2901C1.97654 47.3589 1.86077 47.4647 1.77988 47.5956C1.69899 47.7265 1.65618 47.8774 1.65625 48.0312V50.5156C1.65625 50.7353 1.7435 50.9459 1.8988 51.1012C2.05411 51.2565 2.26474 51.3438 2.48438 51.3438H15.7344C15.954 51.3438 16.1646 51.2565 16.3199 51.1012C16.4753 50.9459 16.5625 50.7353 16.5625 50.5156V48.0312C16.5633 47.8767 16.5209 47.7249 16.44 47.5932C16.359 47.4615 16.2428 47.355 16.1045 47.2859L14.9062 46.6913V38.0938C14.9062 37.8741 14.819 37.6635 14.6637 37.5082C14.5084 37.3529 14.2978 37.2656 14.0781 37.2656H13.25V28.5082L35.9406 6.625H38.0938V18.2188H36.4375C36.2529 18.2188 36.0736 18.2804 35.928 18.394C35.7825 18.5076 35.6791 18.6666 35.6342 18.8456L34.9634 21.5312H29.8125C28.934 21.5312 28.0914 21.8802 27.4702 22.5015C26.849 23.1227 26.5 23.9652 26.5 24.8438V35.6094C26.5 35.829 26.5872 36.0396 26.7426 36.195C26.8979 36.3503 27.1085 36.4375 27.3281 36.4375H50.5156C50.7353 36.4375 50.9459 36.3503 51.1012 36.195C51.2565 36.0396 51.3438 35.829 51.3438 35.6094V24.8438C51.3438 23.9652 50.9948 23.1227 50.3735 22.5015C49.7523 21.8802 48.9098 21.5312 48.0312 21.5312ZM10.5329 23.455L34.7812 4.19942V5.44161L13.1167 26.3344C12.953 25.6803 12.632 25.0762 12.1818 24.5744C11.7315 24.0726 11.1655 23.6883 10.5329 23.455ZM9.10938 24.8438C9.76827 24.8438 10.4002 25.1055 10.8661 25.5714C11.332 26.0373 11.5938 26.6692 11.5938 27.3281H6.625C6.625 26.6692 6.88675 26.0373 7.35266 25.5714C7.81857 25.1055 8.45048 24.8438 9.10938 24.8438ZM4.96875 38.9219H13.25V46.375H4.96875V38.9219ZM14.9062 49.6875H3.3125V48.543L4.33606 48.0312H13.8827L14.9062 48.543V49.6875ZM6.625 37.2656V28.9844H11.5938V37.2656H6.625ZM36.4375 3.3125H40.5781C40.7978 3.3125 41.0084 3.39975 41.1637 3.55505C41.319 3.71036 41.4062 3.92099 41.4062 4.14062C41.4062 4.36026 41.319 4.57089 41.1637 4.7262C41.0084 4.8815 40.7978 4.96875 40.5781 4.96875H36.4375V3.3125ZM49.6875 24.8438H43.0625V23.1875H48.0312C48.4705 23.1875 48.8918 23.362 49.2024 23.6726C49.513 23.9832 49.6875 24.4045 49.6875 24.8438ZM36.4375 22.4612L37.0843 19.875H40.7595L41.4062 22.4612V24.8438H36.4375V22.4612ZM29.8125 23.1875H34.7812V24.8438H28.1562C28.1562 24.4045 28.3307 23.9832 28.6414 23.6726C28.952 23.362 29.3732 23.1875 29.8125 23.1875ZM49.6875 34.7812H28.1562V26.5H49.6875V34.7812Z" fill="black"/>
</svg>
