<svg width="48" height="48" viewBox="0 0 48 48" fill="none" xmlns="http://www.w3.org/2000/svg">
<path d="M19.5 24H40.4998" stroke="black" stroke-width="2.25" stroke-linecap="round" stroke-linejoin="round"/>
<path d="M19.5 12H40.4998" stroke="black" stroke-width="2.25" stroke-linecap="round" stroke-linejoin="round"/>
<path d="M19.4998 36H40.4998" stroke="black" stroke-width="2.25" stroke-linecap="round" stroke-linejoin="round"/>
<path d="M7.5 11.25L10.5 9.75V20.2489" stroke="black" stroke-width="2.25" stroke-linecap="round" stroke-linejoin="round"/>
<path d="M7.70628 28.6033C7.84882 28.2661 8.06031 27.9624 8.32718 27.7117C8.59405 27.4611 8.9104 27.269 9.2559 27.1479C9.60141 27.0267 9.96843 26.9792 10.3334 27.0083C10.6984 27.0374 11.0532 27.1426 11.3751 27.317C11.6971 27.4914 11.9789 27.7312 12.2027 28.021C12.4264 28.3108 12.5871 28.6441 12.6744 28.9997C12.7616 29.3553 12.7735 29.7252 12.7094 30.0857C12.6452 30.4461 12.5063 30.7892 12.3017 31.0928L7.5 37.5001H12.75" stroke="black" stroke-width="2.25" stroke-linecap="round" stroke-linejoin="round"/>
</svg>
