<svg width="52" height="52" viewBox="0 0 52 52" fill="none" xmlns="http://www.w3.org/2000/svg">
<path fill-rule="evenodd" clip-rule="evenodd" d="M26.2888 4.87503C26.2856 4.87607 26.2825 4.87713 26.2793 4.87821C26.274 4.87815 26.2687 4.87815 26.2634 4.87821C26.168 4.88504 26.0745 4.90868 25.9873 4.94803L7.20459 12.981C7.01178 13.0115 6.8364 13.1104 6.71051 13.2596C6.58463 13.4088 6.51666 13.5983 6.51904 13.7935V38.1717C6.51807 38.2875 6.54188 38.4022 6.58887 38.5081C6.5899 38.5113 6.59096 38.5144 6.59204 38.5176C6.59899 38.5326 6.6064 38.5475 6.61426 38.562C6.70174 38.7369 6.84936 38.8744 7.03003 38.9492L25.8254 46.9854C25.9862 47.1012 26.1837 47.1542 26.3809 47.1346C26.5233 47.127 26.6612 47.0821 26.7808 47.0044L45.6206 38.9492C45.7526 38.8955 45.8681 38.8079 45.9556 38.6954C46.043 38.5829 46.0994 38.4493 46.1189 38.3081C46.1214 38.2934 46.1235 38.2786 46.1252 38.2637C46.1266 38.251 46.1277 38.2383 46.1284 38.2256C46.1288 38.2119 46.1288 38.1981 46.1284 38.1844C46.1284 38.1801 46.1284 38.1759 46.1284 38.1717V13.7935C46.1305 13.6007 46.064 13.4134 45.9407 13.2652C45.8175 13.1169 45.6455 13.0173 45.4556 12.9842L26.6602 4.94803C26.6435 4.94005 26.6265 4.93264 26.6094 4.92581C26.6073 4.92475 26.6051 4.92369 26.603 4.92264C26.579 4.91516 26.5546 4.90881 26.53 4.9036C26.5216 4.90134 26.5131 4.89923 26.5046 4.89725C26.4868 4.8924 26.4688 4.88817 26.4507 4.88455C26.4422 4.88336 26.4338 4.8823 26.4253 4.88138C26.4073 4.87972 26.3894 4.87867 26.3713 4.87821C26.3439 4.87575 26.3164 4.87469 26.2888 4.87503ZM26.3237 6.57303L30.3069 8.2742L13.4253 15.4947C13.4092 15.5016 13.3933 15.509 13.3777 15.5169L9.39136 13.8125L26.3237 6.57303ZM32.373 9.1597L37.2068 11.2259L20.011 18.5796C19.852 18.6477 19.7188 18.7647 19.6309 18.9137C19.543 19.0627 19.5049 19.2359 19.5222 19.408C19.5193 19.4396 19.5182 19.4714 19.519 19.5032V28.1963L17.7576 25.5525C17.6478 25.3881 17.4818 25.2694 17.2908 25.2186C17.0997 25.1677 16.8967 25.1883 16.7197 25.2764L14.644 26.3142V16.742L32.373 9.1597ZM39.2729 12.1082L43.2593 13.8125L26.3237 21.052L22.3406 19.3509L39.2253 12.1304C39.2414 12.1235 39.2573 12.1161 39.2729 12.1082ZM8.14404 15.044L13.019 17.1292V27.6282C13.0189 27.7669 13.0543 27.9034 13.1218 28.0245C13.1893 28.1457 13.2868 28.2476 13.4048 28.3204C13.5229 28.3933 13.6576 28.4347 13.7962 28.4408C13.9348 28.4468 14.0726 28.4173 14.1965 28.355L16.8022 27.0506L19.6111 31.2622C19.7004 31.4336 19.8478 31.5675 20.0269 31.6399C20.0508 31.6495 20.0751 31.658 20.0999 31.6653C20.1009 31.6664 20.102 31.6674 20.103 31.6685C20.1548 31.6832 20.208 31.6928 20.2617 31.6971C20.2892 31.6995 20.3167 31.7006 20.3442 31.7002C20.3707 31.7005 20.3972 31.6994 20.4236 31.6971C20.4513 31.6932 20.4789 31.6879 20.5061 31.6812C20.5221 31.6774 20.538 31.6732 20.5537 31.6685C20.5633 31.6665 20.5728 31.6644 20.5823 31.6621C20.7642 31.6048 20.9202 31.4854 21.0229 31.3246C21.1256 31.1639 21.1685 30.9722 21.144 30.783V20.6077L25.5112 22.4739V45.0843L8.14404 37.6575V15.044ZM44.5034 15.0472V37.6575L27.1362 45.0874V22.4739L44.5034 15.0472ZM34.3059 33.722C34.3027 33.723 34.2995 33.7241 34.2964 33.7251C34.1956 33.7301 34.0965 33.7537 34.0044 33.795L29.2659 35.8199C29.0676 35.9045 28.9111 36.0643 28.8308 36.2643C28.7504 36.4643 28.7528 36.688 28.8374 36.8863C28.922 37.0845 29.0819 37.241 29.2819 37.3214C29.4819 37.4017 29.7056 37.3993 29.9038 37.3147L34.6455 35.2898C34.8251 35.2193 34.9738 35.0872 35.0649 34.9171C35.1561 34.747 35.1837 34.55 35.1428 34.3614C35.102 34.1728 34.9953 34.0049 34.842 33.8877C34.6886 33.7706 34.4986 33.7118 34.3059 33.722ZM39.0349 34.9407C38.9352 34.946 38.8373 34.9697 38.7461 35.0105L34.0044 37.0354L29.2659 39.0635C29.0676 39.1481 28.9111 39.308 28.8308 39.508C28.7504 39.708 28.7528 39.9317 28.8374 40.1299C28.922 40.3281 29.0819 40.4847 29.2819 40.565C29.4819 40.6454 29.7056 40.643 29.9038 40.5584L34.6455 38.5303L39.384 36.5022C39.5601 36.4286 39.7047 36.2954 39.7924 36.1259C39.8801 35.9564 39.9053 35.7614 39.8637 35.5752C39.822 35.389 39.7162 35.2233 39.5646 35.1073C39.4131 34.9913 39.2256 34.9323 39.0349 34.9407Z" fill="black"/>
</svg>
