<svg width="52" height="52" viewBox="0 0 52 52" fill="none" xmlns="http://www.w3.org/2000/svg">
<path d="M13 34.9375C12.5179 34.9375 12.0466 35.0805 11.6458 35.3483C11.245 35.6161 10.9325 35.9968 10.748 36.4422C10.5636 36.8876 10.5153 37.3777 10.6093 37.8505C10.7034 38.3234 10.9355 38.7577 11.2764 39.0986C11.6173 39.4395 12.0516 39.6716 12.5245 39.7657C12.9973 39.8597 13.4874 39.8114 13.9328 39.627C14.3782 39.4425 14.7589 39.13 15.0267 38.7292C15.2945 38.3284 15.4375 37.8571 15.4375 37.375C15.4375 36.7285 15.1807 36.1085 14.7236 35.6514C14.2665 35.1943 13.6465 34.9375 13 34.9375ZM13 38.1875C12.8393 38.1875 12.6822 38.1398 12.5486 38.0506C12.415 37.9613 12.3108 37.8344 12.2493 37.6859C12.1879 37.5375 12.1718 37.3741 12.2031 37.2165C12.2345 37.0589 12.3118 36.9141 12.4255 36.8005C12.5391 36.6868 12.6839 36.6095 12.8415 36.5781C12.9991 36.5468 13.1625 36.5629 13.3109 36.6243C13.4594 36.6858 13.5863 36.79 13.6756 36.9236C13.7648 37.0572 13.8125 37.2143 13.8125 37.375C13.8125 37.5905 13.7269 37.7972 13.5745 37.9495C13.4222 38.1019 13.2155 38.1875 13 38.1875ZM40.625 34.9375C40.1429 34.9375 39.6716 35.0805 39.2708 35.3483C38.87 35.6161 38.5575 35.9968 38.373 36.4422C38.1886 36.8876 38.1403 37.3777 38.2343 37.8505C38.3284 38.3234 38.5605 38.7577 38.9014 39.0986C39.2423 39.4395 39.6766 39.6716 40.1495 39.7657C40.6223 39.8597 41.1124 39.8114 41.5578 39.627C42.0032 39.4425 42.3839 39.13 42.6517 38.7292C42.9195 38.3284 43.0625 37.8571 43.0625 37.375C43.0625 36.7285 42.8057 36.1085 42.3486 35.6514C41.8915 35.1943 41.2715 34.9375 40.625 34.9375ZM40.625 38.1875C40.4643 38.1875 40.3072 38.1398 40.1736 38.0506C40.04 37.9613 39.9358 37.8344 39.8743 37.6859C39.8129 37.5375 39.7968 37.3741 39.8281 37.2165C39.8595 37.0589 39.9368 36.9141 40.0505 36.8005C40.1641 36.6868 40.3089 36.6095 40.4665 36.5781C40.6241 36.5468 40.7875 36.5629 40.9359 36.6243C41.0844 36.6858 41.2113 36.79 41.3006 36.9236C41.3898 37.0572 41.4375 37.2143 41.4375 37.375C41.4375 37.5905 41.3519 37.7972 41.1995 37.9495C41.0472 38.1019 40.8405 38.1875 40.625 38.1875Z" fill="black"/>
<path d="M49.5625 34.125V27.625C49.5619 27.503 49.5339 27.3826 49.4804 27.2729C49.427 27.1632 49.3495 27.0669 49.2537 26.9913L45.1912 23.7412C45.049 23.6252 44.871 23.5621 44.6875 23.5625H43.7287L41.9738 14.5844C41.7738 13.6781 41.2715 12.8667 40.5496 12.2835C39.8276 11.7003 38.9287 11.3799 38.0006 11.375H33.3125C33.3125 11.1595 33.2269 10.9528 33.0745 10.8005C32.9222 10.6481 32.7155 10.5625 32.5 10.5625H2.4375C2.22201 10.5625 2.01535 10.6481 1.86298 10.8005C1.7106 10.9528 1.625 11.1595 1.625 11.375V34.9375C1.625 35.153 1.7106 35.3597 1.86298 35.512C2.01535 35.6644 2.22201 35.75 2.4375 35.75H4.0625V37.375C4.0625 37.5905 4.1481 37.7972 4.30048 37.9495C4.45285 38.1019 4.65951 38.1875 4.875 38.1875H7.3775C7.57177 39.5402 8.2472 40.7775 9.27993 41.6725C10.3126 42.5675 11.6334 43.0602 13 43.0602C14.3666 43.0602 15.6874 42.5675 16.7201 41.6725C17.7528 40.7775 18.4282 39.5402 18.6225 38.1875H35.0025C35.1968 39.5402 35.8722 40.7775 36.9049 41.6725C37.9376 42.5675 39.2584 43.0602 40.625 43.0602C41.9916 43.0602 43.3124 42.5675 44.3451 41.6725C45.3778 40.7775 46.0532 39.5402 46.2475 38.1875H49.5625C49.778 38.1875 49.9847 38.1019 50.137 37.9495C50.2894 37.7972 50.375 37.5905 50.375 37.375V34.9375C50.375 34.722 50.2894 34.5153 50.137 34.363C49.9847 34.2106 49.778 34.125 49.5625 34.125ZM33.3125 13H38.0006C38.5548 13.0024 39.0918 13.1925 39.5242 13.5392C39.9565 13.886 40.2586 14.3689 40.3813 14.9094L42.0794 23.5625H33.3125V13ZM7.3775 36.5625H5.6875V35.75H7.54812C7.47411 36.0169 7.41712 36.2883 7.3775 36.5625ZM13 41.4375C12.1965 41.4375 11.4111 41.1992 10.743 40.7528C10.0749 40.3065 9.55422 39.672 9.24674 38.9297C8.93926 38.1873 8.85881 37.3705 9.01556 36.5824C9.17231 35.7944 9.55923 35.0705 10.1274 34.5024C10.6955 33.9342 11.4194 33.5473 12.2074 33.3906C12.9955 33.2338 13.8123 33.3143 14.5547 33.6217C15.297 33.9292 15.9315 34.4499 16.3778 35.118C16.8242 35.7861 17.0625 36.5715 17.0625 37.375C17.0625 38.4524 16.6345 39.4858 15.8726 40.2476C15.1108 41.0095 14.0774 41.4375 13 41.4375ZM13 31.6875C12.0839 31.6888 11.1816 31.911 10.3697 32.3353C9.55785 32.7597 8.86029 33.3736 8.33625 34.125H3.25V12.1875H31.6875V34.125H17.6637C17.1397 33.3736 16.4421 32.7597 15.6303 32.3353C14.8184 31.911 13.9161 31.6888 13 31.6875ZM35.0025 36.5625H18.6225C18.5829 36.2883 18.5259 36.0169 18.4519 35.75H35.1812C35.0977 36.015 35.0379 36.2869 35.0025 36.5625ZM40.625 41.4375C39.5476 41.4375 38.5142 41.0095 37.7524 40.2476C36.9905 39.4858 36.5625 38.4524 36.5625 37.375C36.5587 36.6639 36.7467 35.965 37.1069 35.3519C37.1069 35.3437 37.1069 35.3438 37.115 35.3438C37.4697 34.7263 37.9809 34.2134 38.5972 33.8566C39.2135 33.4999 39.9129 33.3121 40.625 33.3121C41.3371 33.3121 42.0365 33.4999 42.6528 33.8566C43.2691 34.2134 43.7803 34.7263 44.135 35.3438C44.1431 35.3438 44.1431 35.3437 44.1431 35.3519C44.5033 35.965 44.6913 36.6639 44.6875 37.375C44.6875 38.4524 44.2595 39.4858 43.4976 40.2476C42.7358 41.0095 41.7024 41.4375 40.625 41.4375ZM40.625 31.6875C39.7092 31.6902 38.8074 31.9131 37.9957 32.3373C37.1841 32.7615 36.4863 33.3746 35.9613 34.125H33.3125V25.1875H44.4031L47.9375 28.015V34.125H45.2887C44.7637 33.3746 44.0659 32.7615 43.2543 32.3373C42.4426 31.9131 41.5408 31.6902 40.625 31.6875ZM48.75 36.5625H46.2475C46.2121 36.2869 46.1523 36.015 46.0688 35.75H48.75V36.5625Z" fill="black"/>
<path d="M15.4375 22.75H29.25C29.4655 22.75 29.6722 22.6644 29.8245 22.512C29.9769 22.3597 30.0625 22.153 30.0625 21.9375V15.4375C30.0625 15.222 29.9769 15.0153 29.8245 14.863C29.6722 14.7106 29.4655 14.625 29.25 14.625H15.4375C15.222 14.625 15.0153 14.7106 14.863 14.863C14.7106 15.0153 14.625 15.222 14.625 15.4375V21.9375C14.625 22.153 14.7106 22.3597 14.863 22.512C15.0153 22.6644 15.222 22.75 15.4375 22.75ZM16.25 16.25H28.4375V21.125H16.25V16.25Z" fill="black"/>
<path d="M12.1875 14.625H5.6875V16.25H12.1875V14.625Z" fill="black"/>
<path d="M12.1875 17.875H7.3125V19.5H12.1875V17.875Z" fill="black"/>
<path d="M12.1875 21.125H8.9375V22.75H12.1875V21.125Z" fill="black"/>
</svg>
