<svg width="55" height="55" viewBox="0 0 55 55" fill="none" xmlns="http://www.w3.org/2000/svg">
<g clip-path="url(#clip0_40:406)">
<path d="M4.97885 1.71887C3.19046 1.71887 1.71887 3.17073 1.71887 4.99183V36.6553C1.71887 38.4892 3.19046 39.9261 4.97885 39.9261H37.9692C39.6493 41.2887 41.8029 42.1095 44.1238 42.1095C49.5578 42.1095 53.9101 37.6998 53.9101 32.2864C53.9101 30.5359 53.4546 28.8845 52.6508 27.459L54.681 25.4206C55.3695 24.7277 54.8717 23.5233 53.8761 23.5549C53.5942 23.5632 53.3441 23.6696 53.1477 23.8726L51.3574 25.6637C49.5661 23.6923 46.9824 22.4632 44.1238 22.4632V4.99183C44.1238 3.19631 42.6799 1.71887 40.866 1.71887H4.97885ZM4.97885 3.90439H16.9377V13.7275C16.9373 14.5714 17.8499 15.0967 18.5751 14.67L22.9267 12.1561L27.2761 14.67C27.9999 15.0893 28.9047 14.5664 28.9072 13.7275V3.90439H40.866C41.4872 3.90439 41.9491 4.398 41.9491 4.99183V22.7084C37.5672 23.7146 34.3397 27.6248 34.3397 32.2864C34.3397 34.3037 34.9433 36.1803 35.9878 37.7427H4.97885C4.38312 37.7427 3.89571 37.279 3.89571 36.6553V4.99183C3.89571 4.38946 4.35764 3.90439 4.97885 3.90439ZM19.1124 3.90439H26.7303V11.8405L23.464 9.95564C23.1286 9.76212 22.7162 9.76212 22.3809 9.95564L19.1124 11.8405V3.90439ZM44.1238 24.6466C46.3961 24.6466 48.4237 25.6413 49.8155 27.2159L44.1238 32.9239L40.5453 29.329C39.4877 28.3439 38.0266 29.7981 39.0035 30.877L43.3551 35.2438C43.78 35.6713 44.4699 35.6713 44.8948 35.2438L51.0324 29.0837C51.4792 30.0578 51.7333 31.1397 51.7333 32.2864C51.7333 36.5198 48.3235 39.9261 44.1238 39.9261C39.9073 39.9261 36.5166 36.4985 36.5166 32.2864C36.5166 28.0785 39.9073 24.6466 44.1238 24.6466ZM8.24306 26.8257C7.69858 26.8257 7.15434 27.1901 7.15569 27.9196V33.3781C7.15302 34.8367 9.33307 34.8367 9.3304 33.3781V27.9196C9.33175 27.1902 8.78755 26.8257 8.24306 26.8257ZM12.5925 26.8257C12.048 26.8257 11.5038 27.1901 11.5051 27.9196V33.3781C11.5024 34.8367 13.6825 34.8367 13.6798 33.3781V27.9196C13.6811 27.1902 13.137 26.8257 12.5925 26.8257ZM16.942 26.8257C16.3975 26.8257 15.8532 27.1901 15.8546 27.9196V33.3781C15.8519 34.8367 18.032 34.8367 18.0293 33.3781V27.9196C18.0306 27.1902 17.4864 26.8257 16.942 26.8257Z" fill="black"/>
</g>
<defs>
<clipPath id="clip0_40:406">
<rect width="55" height="55" fill="white"/>
</clipPath>
</defs>
</svg>
