<svg width="52" height="52" viewBox="0 0 52 52" fill="none" xmlns="http://www.w3.org/2000/svg">
<path d="M20.3125 6.5V16.25C20.3125 16.6993 20.6765 17.0625 21.125 17.0625H30.875C31.3235 17.0625 31.6875 16.6993 31.6875 16.25V6.5C31.6875 6.05069 31.3235 5.6875 30.875 5.6875H21.125C20.6765 5.6875 20.3125 6.05069 20.3125 6.5ZM25.1875 7.3125H26.8125V9.75H25.1875V7.3125ZM21.9375 7.3125H23.5625V10.5625C23.5625 11.0118 23.9265 11.375 24.375 11.375H27.625C28.0735 11.375 28.4375 11.0118 28.4375 10.5625V7.3125H30.0625V15.4375H21.9375V7.3125ZM20.3832 37.2807C20.1321 38.8936 20.5489 40.4747 21.5556 41.7324C22.3364 42.7082 22.75 43.7905 22.75 44.8638V45.5C22.75 45.9493 23.114 46.3125 23.5625 46.3125H28.4375C28.886 46.3125 29.25 45.9493 29.25 45.5V45.0044C29.25 43.8417 29.6652 42.6912 30.4184 41.7641C31.2366 40.755 31.6875 39.4859 31.6875 38.1875C31.6875 36.5649 30.992 35.0163 29.7789 33.9373C28.5675 32.8591 26.9392 32.3529 25.3151 32.5406C22.8394 32.8307 20.7651 34.8246 20.3832 37.2807ZM25.5052 34.1542C26.6882 34.0153 27.8208 34.3696 28.6991 35.1512C29.5652 35.9223 30.0625 37.0289 30.0625 38.1875C30.0625 39.1268 29.7497 40.0099 29.1574 40.7396C28.2368 41.8722 27.7014 43.2624 27.6323 44.6875H24.3717C24.3303 43.3014 23.7973 41.9315 22.8239 40.716C22.1049 39.819 21.8083 38.6872 21.9887 37.5302C22.2609 35.7817 23.7396 34.3614 25.5052 34.1542ZM28.4375 47.9375C28.4375 47.489 28.0735 47.125 27.625 47.125H24.375C23.9265 47.125 23.5625 47.489 23.5625 47.9375C23.5625 48.386 23.9265 48.75 24.375 48.75H27.625C28.0735 48.75 28.4375 48.386 28.4375 47.9375ZM27.625 50.375C27.625 49.9265 27.261 49.5625 26.8125 49.5625H25.1875C24.739 49.5625 24.375 49.9265 24.375 50.375C24.375 50.8235 24.739 51.1875 25.1875 51.1875H26.8125C27.261 51.1875 27.625 50.8235 27.625 50.375Z" fill="black"/>
<path d="M26 37.375V35.75C24.6561 35.75 23.5625 36.8436 23.5625 38.1875H25.1875C25.1875 37.739 25.5523 37.375 26 37.375ZM42.6132 13.8978C42.3378 13.7605 42.0087 13.7889 41.7625 13.975L38.5125 16.4125C38.3078 16.566 38.1875 16.8074 38.1875 17.0625C38.1875 17.3176 38.3078 17.5589 38.5125 17.7125L41.7625 20.15C41.9063 20.258 42.0778 20.3125 42.25 20.3125C42.3735 20.3125 42.4986 20.284 42.6132 20.2272C42.8886 20.089 43.0625 19.8079 43.0625 19.5V17.875H44.6875V26.8125H46.3125V17.0625C46.3125 16.6132 45.9485 16.25 45.5 16.25H43.0625V14.625C43.0625 14.317 42.8886 14.0359 42.6132 13.8978ZM41.4375 17.875L40.3544 17.0625L41.4375 16.25V17.875ZM9.38682 20.2272C9.50138 20.284 9.62651 20.3125 9.75001 20.3125C9.92226 20.3125 10.0937 20.258 10.2375 20.15L13.4875 17.7125C13.6923 17.5597 13.8125 17.3184 13.8125 17.0625C13.8125 16.8065 13.6923 16.566 13.4875 16.4125L10.2375 13.975C9.99051 13.7889 9.66226 13.7605 9.38682 13.8978C9.11138 14.0359 8.93751 14.317 8.93751 14.625V16.25H6.50001C6.05151 16.25 5.68751 16.6132 5.68751 17.0625V26.8125H7.31251V17.875H8.93751V19.5C8.93751 19.8079 9.11138 20.089 9.38682 20.2272ZM10.5625 16.25L11.6456 17.0625L10.5625 17.875V16.25ZM34.9375 47.9375H45.5C45.9485 47.9375 46.3125 47.5743 46.3125 47.125V43.0625H47.9375C48.2454 43.0625 48.5266 42.8886 48.6647 42.6132C48.8028 42.3377 48.7728 42.0087 48.5875 41.7625L46.15 38.5125C45.8437 38.103 45.1563 38.103 44.85 38.5125L42.4125 41.7625C42.2273 42.0087 42.198 42.3377 42.3353 42.6132C42.4726 42.8886 42.7546 43.0625 43.0625 43.0625H44.6875V46.3125H34.9375V47.9375ZM45.5 40.3544L46.3125 41.4375H44.6875L45.5 40.3544ZM6.50001 47.9375H15.4375V46.3125H7.31251V43.0625H8.93751C9.24544 43.0625 9.52657 42.8886 9.66469 42.6132C9.80282 42.3377 9.77276 42.0087 9.58751 41.7625L7.15001 38.5125C6.84369 38.103 6.15632 38.103 5.85001 38.5125L3.41251 41.7625C3.22726 42.0087 3.19801 42.3377 3.33532 42.6132C3.47263 42.8886 3.75457 43.0625 4.06251 43.0625H5.68751V47.125C5.68751 47.5743 6.05151 47.9375 6.50001 47.9375ZM6.50001 40.3544L7.31251 41.4375H5.68751L6.50001 40.3544ZM22.8353 27.9882C22.9734 28.2636 23.2546 28.4375 23.5625 28.4375H25.1875V30.875H26.8125V28.4375H28.4375C28.7454 28.4375 29.0266 28.2636 29.1647 27.9882C29.3028 27.7127 29.2728 27.3837 29.0875 27.1375L26.65 23.8875C26.3437 23.478 25.6563 23.478 25.35 23.8875L22.9125 27.1375C22.7281 27.3837 22.698 27.7127 22.8353 27.9882ZM26 25.7294L26.8125 26.8125H25.1875L26 25.7294ZM16.0136 14.8232C16.2029 15.3717 16.4393 15.9079 16.7172 16.4182L18.1448 15.6422C17.9099 15.21 17.7093 14.7558 17.55 14.2935L16.0136 14.8232ZM31.7834 20.215L30.8929 18.8549C30.4826 19.1238 30.0463 19.361 29.5961 19.5593L30.2526 21.0462C30.7832 20.8114 31.2983 20.5327 31.7834 20.215ZM19.9566 17.9595C19.5934 17.6264 19.2571 17.2615 18.9548 16.8748L17.6751 17.8758C18.031 18.3324 18.4291 18.7622 18.8573 19.1555L19.9566 17.9595ZM15.5829 13.134L17.186 12.8643C17.1048 12.3825 17.0633 11.8877 17.0625 11.3929L15.4375 11.3961C15.4383 11.9795 15.4879 12.5645 15.5829 13.134ZM28.5586 1.12448L28.1669 2.70155C28.6431 2.82017 29.1127 2.97942 29.5636 3.17523L30.212 1.68511C29.6782 1.45355 29.1216 1.26505 28.5586 1.12448ZM15.5764 9.66061L17.1803 9.92223C17.2599 9.43717 17.3802 8.95698 17.5378 8.49223L15.9989 7.96817C15.8121 8.51742 15.6699 9.08698 15.5764 9.66061ZM23.3764 1.14073C22.8142 1.28455 22.2593 1.4763 21.7279 1.71192L22.3868 3.19717C22.8353 2.99892 23.3041 2.83642 23.7794 2.71455L23.3764 1.14073ZM26.7085 2.46592L26.8393 0.845796C26.2657 0.799483 25.6709 0.801921 25.0965 0.851483L25.2322 2.46998C25.7205 2.43017 26.2218 2.42611 26.7085 2.46592ZM16.6969 6.36836L18.1277 7.13942C18.3601 6.7088 18.6314 6.29198 18.9337 5.90198L17.6491 4.90667C17.2924 5.36655 16.9723 5.85892 16.6969 6.36836ZM36.5625 11.353L36.1766 11.3433L34.9375 11.375C34.9375 11.8682 34.8969 12.3638 34.8173 12.8464L36.4203 13.1113C36.5146 12.5417 36.5625 11.9575 36.5625 11.353ZM32.0564 17.9497L33.1581 19.1433C33.5855 18.7492 33.982 18.317 34.3379 17.8612L33.0558 16.8626C32.7543 17.2485 32.4179 17.615 32.0564 17.9497ZM35.9929 14.8037L34.4557 14.2756C34.2964 14.7395 34.0966 15.1945 33.8626 15.6268L35.2918 16.4011C35.5688 15.8892 35.8044 15.3522 35.9929 14.8037ZM34.4443 8.43861C34.606 8.90417 34.7295 9.38436 34.8108 9.86617L36.413 9.59642C36.3171 9.02523 36.1709 8.45648 35.9791 7.90561L34.4443 8.43861ZM33.0338 5.85973C33.3377 6.24648 33.6107 6.66005 33.8463 7.09148L35.2714 6.31067C34.9928 5.80205 34.6702 5.31292 34.3119 4.85711L33.0338 5.85973ZM18.8264 3.62211L19.9298 4.81567C20.2914 4.48092 20.6822 4.17461 21.0917 3.90486L20.1979 2.54798C19.7153 2.86486 19.253 3.22723 18.8264 3.62211ZM20.2337 20.2255C20.7204 20.544 21.2363 20.8219 21.7685 21.0551L22.4201 19.5666C21.97 19.37 21.5337 19.1335 21.1226 18.8654L20.2337 20.2255ZM30.862 3.8748C31.2723 4.14211 31.6656 4.44598 32.0304 4.77911L33.1264 3.57905C32.6966 3.18661 32.2327 2.82748 31.7476 2.51305L30.862 3.8748ZM23.816 20.0444L23.4203 21.6198C23.9818 21.7612 24.5603 21.8562 25.1412 21.9034L25.2712 20.2832C24.7796 20.2442 24.2905 20.163 23.816 20.0444ZM28.2035 20.0395C27.7274 20.1597 27.2383 20.2418 26.7475 20.2832L26.8824 21.9017C27.4609 21.8538 28.0394 21.7571 28.6016 21.6149L28.2035 20.0395ZM6.50001 35.75C8.29238 35.75 9.75001 34.2924 9.75001 32.5C9.75001 30.7076 8.29238 29.25 6.50001 29.25C4.70763 29.25 3.25001 30.7076 3.25001 32.5C3.25001 34.2924 4.70763 35.75 6.50001 35.75ZM6.50001 30.875C7.39619 30.875 8.12501 31.6038 8.12501 32.5C8.12501 33.3962 7.39619 34.125 6.50001 34.125C5.60382 34.125 4.87501 33.3962 4.87501 32.5C4.87501 31.6038 5.60382 30.875 6.50001 30.875ZM45.5 35.75C47.2924 35.75 48.75 34.2924 48.75 32.5C48.75 30.7076 47.2924 29.25 45.5 29.25C43.7076 29.25 42.25 30.7076 42.25 32.5C42.25 34.2924 43.7076 35.75 45.5 35.75ZM45.5 30.875C46.3962 30.875 47.125 31.6038 47.125 32.5C47.125 33.3962 46.3962 34.125 45.5 34.125C44.6038 34.125 43.875 33.3962 43.875 32.5C43.875 31.6038 44.6038 30.875 45.5 30.875Z" fill="black"/>
</svg>
