<svg width="55" height="55" viewBox="0 0 55 55" fill="none" xmlns="http://www.w3.org/2000/svg">
<path d="M5.65667 0.876641C5.3079 0.990906 5.05795 1.35447 5.07615 1.72103V22.778V35.866V42.1989C5.0762 42.641 5.47843 43.0433 5.92054 43.0433H9.77307H24.4971H29.9856H38.0073C38.4494 43.0433 38.8517 42.641 38.8517 42.1989V36.2882H48.14C48.5821 36.2882 48.9843 35.8859 48.9844 35.4438V23.6224C48.9843 23.1803 48.5821 22.778 48.14 22.778H38.8517V13.4897V11.9065C38.8868 11.4097 38.3957 10.9459 37.9018 11.0093C37.4777 11.0617 37.133 11.4803 37.1629 11.9065V13.4897V22.778H27.8747C27.8571 22.7774 27.8395 22.7774 27.8219 22.778C27.3977 22.8046 27.0295 23.1973 27.0303 23.6224V35.4438C27.0303 35.8859 27.4325 36.2882 27.8747 36.2882H37.1629V41.3545H29.9856H24.4971H9.77307H6.76493V35.866V22.778V2.56542H27.8747C28.3208 2.57174 28.7311 2.16718 28.7311 1.72103C28.7311 1.27488 28.3208 0.870332 27.8747 0.876641H5.92054C5.83331 0.862842 5.74391 0.862842 5.65667 0.876641ZM30.9883 0.876641C30.6396 0.990906 30.3896 1.35447 30.4078 1.72103V8.47614C30.4079 8.91825 30.8101 9.32049 31.2522 9.32053H38.0073C38.6954 9.33855 39.1042 8.29801 38.5878 7.84285L31.8327 1.08774C31.6174 0.872002 31.2798 0.787609 30.9883 0.876641ZM32.0966 3.72645L36.0019 7.63175H32.0966V3.72645ZM10.1425 7.63175V9.32053H25.3415V7.63175H10.1425ZM10.1425 12.6981V14.3869H32.0966V12.6981H10.1425ZM10.1425 17.7644V19.4532H32.0966V17.7644H10.1425ZM30.5134 24.4668H45.554L38.0073 28.5832L30.5134 24.4668ZM28.719 25.4167L37.6379 30.2719C37.8805 30.4007 38.1869 30.4007 38.4295 30.2719L47.2956 25.4167V34.5994H28.719V25.4167ZM13.52 29.5331V31.2219H15.2088V29.5331H13.52ZM16.8976 29.5331V31.2219H25.3415V29.5331H16.8976ZM16.8976 32.9106V34.5994H18.5864V32.9106H16.8976ZM20.2752 32.9106V34.5994H25.3415V32.9106H20.2752ZM7.0288 44.8904L2.17357 47.3708C1.595 47.6409 1.595 48.6312 2.17357 48.9013L7.0288 51.3817C7.44118 51.5623 7.47813 51.54 8.29539 51.54L35.1047 51.4872H35.9491C35.9667 51.4878 35.9843 51.4878 36.0019 51.4872H37.849C39.3232 51.4879 40.541 50.2188 40.5405 48.7429V47.5291C40.5402 46.0533 39.323 44.838 37.849 44.8376C36.9077 44.785 36.3781 44.748 35.4742 44.7848H8.45371C8.45371 44.7848 7.35042 44.8904 7.0288 44.8904V44.8904ZM9.13977 46.5264H34.2603V46.5792V49.7984H9.13977V46.5264ZM36.0019 46.5264H37.849C38.4005 46.5266 38.8516 46.944 38.8517 47.5291V48.7429C38.8519 49.3279 38.4003 49.7986 37.849 49.7984H36.0019C35.9843 49.7979 35.9667 49.7979 35.9491 49.7984V46.5792C35.9675 46.5623 35.9851 46.5448 36.0019 46.5264ZM7.451 46.632V49.6401L4.44286 48.1624L7.451 46.632Z" fill="black"/>
</svg>
