<svg width="54" height="54" viewBox="0 0 54 54" fill="none" xmlns="http://www.w3.org/2000/svg">
<path d="M40.5 18H13.5C11.0182 18 9 15.9818 9 13.5V6.75C9 4.26825 11.0182 2.25 13.5 2.25H40.5C42.9818 2.25 45 4.26825 45 6.75V13.5C45 15.9818 42.9818 18 40.5 18ZM13.5 4.5C12.2591 4.5 11.25 5.50912 11.25 6.75V13.5C11.25 14.7409 12.2591 15.75 13.5 15.75H40.5C41.7409 15.75 42.75 14.7409 42.75 13.5V6.75C42.75 5.50912 41.7409 4.5 40.5 4.5H13.5Z" fill="black"/>
<path d="M43.875 9H47.25V11.25H43.875V9ZM29.25 33.75H27V23.625C27 23.0051 26.4949 22.5 25.875 22.5H9C6.14025 22.5 4.5 20.8597 4.5 18V13.5C4.5 10.6402 6.14025 9 9 9H10.125V11.25H9C7.38112 11.25 6.75 11.8811 6.75 13.5V18C6.75 19.6189 7.38112 20.25 9 20.25H25.875C27.7358 20.25 29.25 21.7642 29.25 23.625V33.75Z" fill="black"/>
<path d="M29.25 54H27C25.1392 54 23.625 52.4858 23.625 50.625V38.25C23.625 34.7276 25.3069 32.625 28.125 32.625C30.9431 32.625 32.625 34.7276 32.625 38.25V50.625C32.625 52.4858 31.1108 54 29.25 54ZM28.125 34.875C27.5681 34.875 25.875 34.875 25.875 38.25V50.625C25.875 51.2449 26.3801 51.75 27 51.75H29.25C29.8699 51.75 30.375 51.2449 30.375 50.625V38.25C30.375 34.875 28.6819 34.875 28.125 34.875Z" fill="black"/>
</svg>
