<svg width="53" height="53" viewBox="0 0 53 53" fill="none" xmlns="http://www.w3.org/2000/svg">
<path d="M3.1097 1.66737C2.73461 1.7902 2.4658 2.181 2.48538 2.57503V47.901C2.48543 48.3763 2.91802 48.8086 3.39349 48.8087H7.53673C8.01649 48.8154 8.45777 48.3806 8.45777 47.901C8.45777 47.4215 8.01649 46.9866 7.53673 46.9934H4.30159V3.48268H27.0043C27.4841 3.48947 27.9253 3.0546 27.9253 2.57503C27.9253 2.09545 27.4841 1.66059 27.0043 1.66737H3.39349C3.29967 1.65254 3.20352 1.65254 3.1097 1.66737ZM30.3529 2.17793C29.9778 2.30076 29.709 2.69156 29.7286 3.08558V10.3468C29.7287 10.8221 30.1612 11.2544 30.6367 11.2545H37.9016C38.5948 11.228 39.0032 10.2259 38.5259 9.72281L31.261 2.46157C31.0628 2.24661 30.7561 2.13711 30.4664 2.17793C30.4287 2.17557 30.3907 2.17557 30.3529 2.17793ZM31.5448 5.24126L35.7448 9.43917H31.5448V5.24126ZM7.93403 8.92861V10.7439H24.28V8.92861H7.93403ZM37.6746 12.5592C37.2591 12.6645 36.9536 13.0971 36.9935 13.5236V15.2255C36.9868 15.705 37.4218 16.146 37.9016 16.146C38.3814 16.146 38.8165 15.705 38.8097 15.2255V13.5236C38.8475 12.9896 38.3193 12.491 37.7881 12.5592C37.7503 12.5569 37.7123 12.5569 37.6746 12.5592ZM44.7691 12.5592C43.8378 12.5592 42.921 12.8747 42.2151 13.5803L40.5691 15.2822C40.4606 15.3378 40.3634 15.4155 40.2854 15.5091C40.1917 15.5871 40.1139 15.6842 40.0583 15.7927L12.3043 43.5329C12.0221 43.815 11.9485 44.0861 11.7935 44.3271L9.23943 51.8153C9.02061 52.4658 9.7919 53.2 10.4313 52.9499L18.0935 50.3971C18.3497 50.2492 18.4169 50.2676 18.6043 49.9433L46.4718 22.0896C46.5326 22.0583 46.5899 22.0202 46.6421 21.9761L46.6989 21.9194C46.7926 21.8414 46.8703 21.7443 46.9259 21.6358L48.6286 19.9907C50.0405 18.5794 50.0405 16.2963 48.6286 14.8851L47.38 13.5803C46.674 12.8747 45.7004 12.5592 44.7691 12.5592ZM44.7691 14.3178C45.2306 14.3178 45.7133 14.524 46.0746 14.8851L47.38 16.1898C48.1026 16.912 48.1025 18.0205 47.38 18.7426L46.0746 20.0474L44.7691 18.7426L44.1448 18.0619L43.5205 17.4379L42.2151 16.1898L43.5205 14.8851C43.8818 14.524 44.3077 14.3176 44.7691 14.3178ZM7.93403 14.3745V16.1898H27.9124V14.3745H7.93403ZM40.9097 17.4379L42.2151 18.7426L15.2556 45.6886L13.9502 44.3839L40.9097 17.4379ZM7.93403 19.8205V21.6358H31.5448V19.8205H7.93403ZM43.5205 20.0474L44.7691 21.2954L17.8097 48.2414L16.561 46.9934L43.5205 20.0474ZM37.6746 32.5276C37.2591 32.6329 36.9536 33.0655 36.9935 33.492V39.335V46.9934H29.2746H23.3719C22.8921 46.9867 22.4508 47.4215 22.4508 47.901C22.4508 48.3806 22.8921 48.8155 23.3719 48.8087H29.2746H37.9016C38.3771 48.8086 38.8096 48.3763 38.8097 47.901V39.335V33.492C38.8475 32.958 38.3193 32.4594 37.7881 32.5276C37.7503 32.5253 37.7123 32.5253 37.6746 32.5276ZM13.0989 46.1425L16.1638 49.1491L11.5665 50.6807L13.0989 46.1425Z" fill="black"/>
</svg>
