<svg width="43" height="43" viewBox="0 0 43 43" fill="none" xmlns="http://www.w3.org/2000/svg">
<path d="M42.3729 25.1943C42.7467 25.0742 43 24.7264 43 24.3336V18.6929C43 18.3001 42.7463 17.9523 42.3725 17.8322L37.0528 16.1259C36.8172 15.4709 36.5758 14.8874 36.3225 14.3595L38.8793 9.37028C39.058 9.0216 38.9914 8.597 38.7147 8.31982L34.729 4.32454C34.4519 4.04559 34.0278 3.98027 33.6788 4.1577L28.6896 6.70264C28.1287 6.42281 27.5304 6.173 26.9015 5.95584L25.1986 0.62851C25.0786 0.254229 24.7309 0 24.3377 0H18.6985C18.3067 0 17.9594 0.252463 17.8385 0.625862L16.117 5.95055C15.5778 6.13769 14.9573 6.37691 14.328 6.69116L9.36934 4.14005C9.01896 3.96085 8.59356 4.02794 8.31599 4.306L4.3215 8.31099C4.04525 8.58817 3.97862 9.011 4.15646 9.35969L6.68457 14.3172C6.40038 14.8953 6.15415 15.4938 5.94895 16.1047L0.644279 17.8146C0.271836 17.9346 0.0189804 18.2806 0.0176565 18.6726L5.18234e-06 24.3133C-0.00131863 24.7061 0.251095 25.0539 0.624421 25.1757L5.95027 26.9059C6.15326 27.4779 6.39464 28.0543 6.68942 28.6723L4.14763 33.6483C3.96979 33.9969 4.03598 34.4198 4.31223 34.697L8.28863 38.6922C8.56532 38.9703 8.98983 39.0409 9.33889 38.86L14.3254 36.3203C14.9127 36.6081 15.4961 36.8526 16.0914 37.06L17.8212 42.3759C17.9422 42.7484 18.289 43 18.6804 43H24.3196C24.711 43 25.0578 42.7484 25.1788 42.3759L26.9104 37.0565C27.5352 36.8349 28.1173 36.5948 28.6711 36.3291L33.6514 38.8697C34.0018 39.0471 34.4232 38.98 34.7008 38.7046L38.686 34.727C38.9627 34.4507 39.0307 34.027 38.8533 33.6783L36.3163 28.6776C36.582 28.1417 36.8247 27.5565 37.0511 26.9068L42.3729 25.1943ZM34.4943 29.081L36.9447 33.9104L33.8884 36.9612L29.0868 34.5116C28.8264 34.3774 28.5197 34.3792 28.2611 34.5133C27.5449 34.8841 26.7749 35.2028 25.9078 35.4879C25.6346 35.5779 25.4201 35.7933 25.3314 36.067L23.6634 41.1922H19.3366L17.6686 36.067C17.5785 35.7898 17.3597 35.5726 17.0816 35.4852C16.2895 35.2345 15.5244 34.9141 14.7424 34.5054C14.4838 34.3712 14.1749 34.3686 13.9141 34.5019L9.10501 36.9506L6.05574 33.8866L8.50442 29.0924C8.63504 28.8364 8.63636 28.5337 8.50795 28.2768C8.07858 27.4179 7.76483 26.6658 7.52036 25.9084C7.43122 25.633 7.21543 25.4167 6.93963 25.3267L1.80971 23.6601L1.82295 19.3346L6.94669 17.683C7.22999 17.5912 7.4502 17.3661 7.53536 17.081C7.77719 16.2724 8.10021 15.4868 8.49692 14.7435C8.63592 14.4831 8.63901 14.1706 8.50442 13.9076L6.06456 9.12311L9.12928 6.0503L13.9199 8.5149C14.1895 8.65173 14.5094 8.64732 14.7733 8.50078C15.4207 8.13974 16.1214 7.84667 17.1174 7.52094C17.3923 7.43178 17.6077 7.21551 17.6968 6.9401L19.356 1.80785H23.678L25.3204 6.94628C25.4104 7.22699 25.6311 7.44591 25.9117 7.5333C26.7594 7.79812 27.5467 8.12826 28.2514 8.51314C28.5135 8.65526 28.8295 8.66056 29.0952 8.52461L33.914 6.06707L36.9707 9.13106L34.5048 13.942C34.3711 14.2033 34.3725 14.5131 34.5084 14.7726C34.8535 15.4338 35.1756 16.208 35.4929 17.1402C35.5851 17.4112 35.8 17.6221 36.0723 17.7095L41.1925 19.3523V23.6751L36.063 25.3258C35.7859 25.4149 35.5692 25.6321 35.4796 25.9084C35.1871 26.815 34.8689 27.5777 34.5071 28.2379C34.3641 28.5001 34.3592 28.8153 34.4943 29.081Z" fill="black"/>
<path d="M22.6262 12.9759C17.9334 12.3502 13.6032 15.6628 12.9772 20.3571C12.6736 22.6351 13.2724 24.8955 14.6638 26.7205C16.0569 28.5473 18.0779 29.7211 20.3554 30.0242C20.7391 30.0753 21.1203 30.1 21.4974 30.1C25.743 30.1 29.4488 26.9487 30.0243 22.6281C30.6499 17.9337 27.3313 13.6033 22.6262 12.9759ZM28.2354 22.3901C27.7407 26.108 24.3199 28.7315 20.5933 28.2353C18.7952 27.9956 17.1989 27.0695 16.0992 25.626C14.9995 24.1834 14.5258 22.3972 14.766 20.595C15.2198 17.1891 18.1409 14.7049 21.4877 14.7049C21.7851 14.7049 22.0856 14.7243 22.3878 14.7648C26.1065 15.2609 28.7294 18.681 28.2354 22.3901Z" fill="black"/>
</svg>
