<svg width="56" height="56" viewBox="0 0 56 56" fill="none" xmlns="http://www.w3.org/2000/svg">
<path d="M10.5 21V33.25H12.25V21C12.253 18.4483 13.268 16.0019 15.0724 14.1975C16.8768 12.3931 19.3232 11.3781 21.875 11.375H28.6685L24.9839 13.2169L25.7661 14.7832L32.7661 11.2832C32.9117 11.2106 33.0342 11.0989 33.1198 10.9605C33.2055 10.8222 33.2508 10.6627 33.2508 10.5C33.2508 10.3374 33.2055 10.1779 33.1198 10.0396C33.0342 9.90122 32.9117 9.78949 32.7661 9.71692L25.7661 6.21692L24.9839 7.78754L28.6685 9.62504H21.875C18.8592 9.62852 15.968 10.8281 13.8355 12.9605C11.703 15.093 10.5035 17.9843 10.5 21Z" fill="black"/>
<path d="M36.3458 21.6449C35.774 20.8955 35.1045 20.226 34.3551 19.6542C34.243 19.5691 34.1121 19.5122 33.9734 19.4881C33.8347 19.4641 33.6922 19.4736 33.558 19.516L32.4774 19.866C31.8786 19.5341 31.2447 19.2699 30.5874 19.0785L30.0676 18.0705C30.0031 17.9452 29.9092 17.8374 29.794 17.7562C29.6789 17.675 29.5458 17.6228 29.4061 17.6041C28.4741 17.4624 27.5259 17.4624 26.5939 17.6041C26.4542 17.6228 26.3211 17.675 26.206 17.7562C26.0908 17.8374 25.9969 17.9452 25.9324 18.0705L25.4126 19.075C24.7553 19.2664 24.1214 19.5306 23.5226 19.8625L22.442 19.5125C22.3077 19.4703 22.1653 19.4608 22.0267 19.4848C21.888 19.5089 21.7571 19.5658 21.6449 19.6507C20.8955 20.2225 20.226 20.892 19.6543 21.6414C19.5688 21.7533 19.5115 21.8842 19.4875 22.023C19.4634 22.1618 19.4732 22.3043 19.516 22.4385L19.866 23.5191C19.5341 24.1179 19.27 24.7518 19.0785 25.4091L18.0705 25.9289C17.9452 25.9934 17.8374 26.0873 17.7562 26.2024C17.675 26.3176 17.6229 26.4507 17.6041 26.5904C17.4653 27.5226 17.4653 28.4703 17.6041 29.4026C17.6229 29.5423 17.675 29.6754 17.7562 29.7905C17.8374 29.9057 17.9452 29.9996 18.0705 30.0641L19.0785 30.5839C19.27 31.2412 19.5341 31.8751 19.866 32.4739L19.516 33.5545C19.4732 33.6887 19.4634 33.8312 19.4875 33.97C19.5115 34.1088 19.5688 34.2397 19.6543 34.3516C20.226 35.101 20.8955 35.7705 21.6449 36.3422C21.7568 36.4277 21.8877 36.485 22.0265 36.509C22.1653 36.5331 22.3078 36.5233 22.442 36.4805L23.5226 36.1349C24.1216 36.4653 24.7555 36.7279 25.4126 36.918L25.9324 37.926C25.9969 38.0513 26.0908 38.1591 26.206 38.2403C26.3211 38.3215 26.4542 38.3736 26.5939 38.3924C27.5262 38.5312 28.4739 38.5312 29.4061 38.3924C29.5458 38.3736 29.6789 38.3215 29.794 38.2403C29.9092 38.1591 30.0031 38.0513 30.0676 37.926L30.5874 36.918C31.2445 36.7279 31.8784 36.4653 32.4774 36.1349L33.558 36.4805C33.6922 36.5233 33.8347 36.5331 33.9735 36.509C34.1123 36.485 34.2432 36.4277 34.3551 36.3422C35.1045 35.7705 35.774 35.101 36.3458 34.3516C36.4313 34.2397 36.4885 34.1088 36.5125 33.97C36.5366 33.8312 36.5268 33.6887 36.484 33.5545L36.1375 32.4774C36.4679 31.8784 36.7306 31.2445 36.9206 30.5874L37.9286 30.0676C38.0539 30.0031 38.1617 29.9092 38.2429 29.794C38.3241 29.6789 38.3763 29.5458 38.395 29.4061C38.5338 28.4738 38.5338 27.5261 38.395 26.5939C38.3763 26.4542 38.3241 26.3211 38.2429 26.206C38.1617 26.0908 38.0539 25.9969 37.9286 25.9324L36.925 25.4126C36.7349 24.7555 36.4723 24.1216 36.1419 23.5226L36.4875 22.442C36.5298 22.3075 36.5391 22.1648 36.5144 22.026C36.4897 21.8873 36.4318 21.7565 36.3458 21.6449ZM36.7133 27.2737C36.7378 27.5362 36.75 27.7725 36.75 28C36.75 28.2275 36.7378 28.4637 36.7133 28.7262L35.7753 29.2092C35.6639 29.2668 35.5661 29.3476 35.4887 29.4461C35.4113 29.5447 35.3559 29.6588 35.3264 29.7806C35.1433 30.535 34.8443 31.2564 34.44 31.9191C34.3741 32.026 34.3322 32.1458 34.3171 32.2705C34.302 32.3951 34.3141 32.5215 34.3525 32.641L34.6728 33.6429C34.3587 34.0147 34.0139 34.3595 33.642 34.6736L32.6375 34.3534C32.5179 34.3153 32.3916 34.3035 32.267 34.3186C32.1425 34.3337 32.0226 34.3754 31.9156 34.4409C31.2529 34.8452 30.5315 35.1442 29.7771 35.3272C29.6553 35.3568 29.5412 35.4121 29.4426 35.4896C29.3441 35.567 29.2633 35.6647 29.2058 35.7761L28.7228 36.7141C28.2399 36.764 27.7531 36.764 27.2703 36.7141L26.7873 35.7761C26.7297 35.6647 26.6489 35.567 26.5504 35.4896C26.4518 35.4121 26.3377 35.3568 26.2159 35.3272C25.4615 35.1442 24.7401 34.8452 24.0774 34.4409C23.9704 34.3754 23.8505 34.3337 23.726 34.3186C23.6014 34.3035 23.4751 34.3153 23.3555 34.3534L22.3536 34.6736C21.9818 34.3595 21.637 34.0147 21.3229 33.6429L21.6431 32.641C21.6816 32.5215 21.6936 32.3951 21.6785 32.2705C21.6634 32.1458 21.6215 32.026 21.5556 31.9191C21.1513 31.2564 20.8523 30.535 20.6693 29.7806C20.6397 29.6588 20.5844 29.5447 20.5069 29.4461C20.4295 29.3476 20.3318 29.2668 20.2204 29.2092L19.2824 28.7262C19.2579 28.4637 19.2456 28.2275 19.2456 28C19.2456 27.7725 19.2579 27.5362 19.2824 27.2737L20.2204 26.7907C20.3319 26.7331 20.4296 26.6522 20.5071 26.5535C20.5845 26.4547 20.6398 26.3405 20.6693 26.2185C20.8525 25.4644 21.1515 24.7433 21.5556 24.0809C21.6215 23.974 21.6634 23.8541 21.6785 23.7295C21.6936 23.6049 21.6816 23.4785 21.6431 23.359L21.3229 22.3571C21.637 21.9853 21.9818 21.6405 22.3536 21.3264L23.3555 21.6466C23.4751 21.6846 23.6014 21.6965 23.726 21.6814C23.8505 21.6663 23.9704 21.6246 24.0774 21.5591C24.7401 21.1548 25.4615 20.8558 26.2159 20.6727C26.3377 20.6432 26.4518 20.5879 26.5504 20.5104C26.6489 20.433 26.7297 20.3353 26.7873 20.2239L27.2703 19.2859C27.7531 19.236 28.2399 19.236 28.7228 19.2859L29.2058 20.2239C29.2633 20.3353 29.3441 20.433 29.4426 20.5104C29.5412 20.5879 29.6553 20.6432 29.7771 20.6727C30.5315 20.8558 31.2529 21.1548 31.9156 21.5591C32.0226 21.6246 32.1425 21.6663 32.267 21.6814C32.3916 21.6965 32.5179 21.6846 32.6375 21.6466L33.6394 21.3264C34.0112 21.6405 34.356 21.9853 34.6701 22.3571L34.3534 23.3625C34.315 23.482 34.3029 23.6084 34.318 23.733C34.3331 23.8576 34.375 23.9775 34.4409 24.0844C34.8452 24.7471 35.1442 25.4685 35.3273 26.2229C35.3568 26.3447 35.4121 26.4588 35.4896 26.5573C35.567 26.6559 35.6647 26.7367 35.7761 26.7942L36.7133 27.2737Z" fill="black"/>
<path d="M28 22.75C26.9617 22.75 25.9466 23.0579 25.0833 23.6348C24.2199 24.2117 23.547 25.0316 23.1496 25.9909C22.7523 26.9502 22.6483 28.0058 22.8509 29.0242C23.0535 30.0426 23.5535 30.9781 24.2877 31.7123C25.0219 32.4465 25.9574 32.9465 26.9758 33.1491C27.9942 33.3517 29.0498 33.2477 30.0091 32.8504C30.9684 32.453 31.7883 31.7801 32.3652 30.9167C32.9421 30.0534 33.25 29.0383 33.25 28C33.2486 26.608 32.695 25.2735 31.7108 24.2892C30.7265 23.305 29.392 22.7514 28 22.75ZM28 31.5C27.3078 31.5 26.6311 31.2947 26.0555 30.9101C25.4799 30.5256 25.0313 29.9789 24.7664 29.3394C24.5015 28.6998 24.4322 27.9961 24.5673 27.3172C24.7023 26.6382 25.0356 26.0146 25.5251 25.5251C26.0146 25.0356 26.6383 24.7023 27.3172 24.5672C27.9961 24.4322 28.6999 24.5015 29.3394 24.7664C29.9789 25.0313 30.5256 25.4799 30.9101 26.0555C31.2947 26.6311 31.5 27.3078 31.5 28C31.5 28.9283 31.1313 29.8185 30.4749 30.4749C29.8185 31.1312 28.9283 31.5 28 31.5ZM44.625 1.75C42.7214 1.75 40.8605 2.3145 39.2776 3.3721C37.6948 4.42971 36.4612 5.93293 35.7327 7.69167C35.0042 9.45041 34.8136 11.3857 35.1849 13.2527C35.5563 15.1198 36.473 16.8348 37.8191 18.1809C39.1652 19.527 40.8802 20.4437 42.7473 20.8151C44.6143 21.1864 46.5496 20.9958 48.3083 20.2673C50.0671 19.5388 51.5703 18.3052 52.6279 16.7224C53.6855 15.1395 54.25 13.2786 54.25 11.375C54.247 8.82321 53.232 6.37681 51.4276 4.57242C49.6232 2.76804 47.1768 1.75301 44.625 1.75ZM44.625 19.25C43.0675 19.25 41.5449 18.7881 40.2499 17.9228C38.9548 17.0575 37.9455 15.8276 37.3495 14.3886C36.7534 12.9497 36.5975 11.3663 36.9013 9.83866C37.2052 8.31106 37.9552 6.90787 39.0565 5.80653C40.1579 4.70519 41.5611 3.95517 43.0887 3.65132C44.6163 3.34746 46.1997 3.50341 47.6386 4.09945C49.0776 4.69549 50.3075 5.70485 51.1728 6.99988C52.0381 8.29492 52.5 9.81747 52.5 11.375C52.4975 13.4628 51.6669 15.4644 50.1907 16.9407C48.7144 18.4169 46.7128 19.2474 44.625 19.25Z" fill="black"/>
<path d="M2.28025 50.4289L11.0302 54.1791C11.1392 54.2258 11.2565 54.2499 11.375 54.2499C11.4935 54.2499 11.6108 54.2258 11.7198 54.1791L20.4697 50.4289C20.6271 50.3614 20.7612 50.2493 20.8555 50.1063C20.9497 49.9634 21 49.796 21 49.6248V39.6252C21 39.454 20.9497 39.2866 20.8555 39.1437C20.7612 39.0007 20.6271 38.8886 20.4697 38.8211L11.7198 35.0709C11.6108 35.0242 11.4935 35.0001 11.375 35.0001C11.2565 35.0001 11.1392 35.0242 11.0302 35.0709L2.28025 38.8211C2.12289 38.8886 1.98877 39.0007 1.89452 39.1437C1.80027 39.2866 1.75002 39.454 1.75 39.6252V49.6248C1.75002 49.796 1.80027 49.9634 1.89452 50.1063C1.98877 50.2493 2.12289 50.3614 2.28025 50.4289ZM3.5 40.95L10.5 43.9504V52.0468L3.5 49.0481V40.95ZM12.25 52.0485V43.9521L19.25 40.95V49.0464L12.25 52.0485ZM11.375 36.8235L17.9042 39.6235L11.375 42.4226L4.84575 39.6226L11.375 36.8235ZM45.5 35V22.75H43.75V35C43.747 37.5518 42.732 39.9982 40.9276 41.8026C39.1232 43.607 36.6768 44.622 34.125 44.625H27.3315L31.0161 42.7875L30.2339 41.2213L23.2339 44.7213C23.0883 44.7938 22.9658 44.9055 22.8802 45.0439C22.7945 45.1822 22.7492 45.3417 22.7492 45.5044C22.7492 45.6671 22.7945 45.8265 22.8802 45.9649C22.9658 46.1032 23.0883 46.2149 23.2339 46.2875L30.2339 49.7875L31.0161 48.2213L27.3315 46.375H34.125C37.1408 46.3715 40.032 45.172 42.1645 43.0395C44.297 40.907 45.4965 38.0158 45.5 35Z" fill="black"/>
<path d="M45.5377 11.1658C47.2966 11.1658 48.1144 10.1011 48.1144 8.82053C48.1144 7.53992 47.2966 6.47531 45.5377 6.47531H42.7759V10.3172H41.5262V11.1658H42.7759V11.9063H41.5262V12.7549H42.7759V14.375H43.7325V12.7549H45.476V11.9063H43.7325V11.1658H45.5377ZM43.7325 10.3172V7.32391H45.5377C46.6486 7.32391 47.1732 7.9565 47.1732 8.82053C47.1732 9.68456 46.6486 10.3172 45.5377 10.3172H43.7325Z" fill="black"/>
</svg>
