<svg width="53" height="53" viewBox="0 0 53 53" fill="none" xmlns="http://www.w3.org/2000/svg">
<path d="M36.6445 14.8027C36.6445 14.6105 36.5682 14.4262 36.4323 14.2903C36.2964 14.1544 36.1121 14.0781 35.9199 14.0781H33.125C32.9328 14.0781 32.7485 14.1544 32.6126 14.2903C32.4767 14.4262 32.4004 14.6105 32.4004 14.8027V23.0839C32.4004 23.2761 32.4767 23.4604 32.6126 23.5963C32.7485 23.7322 32.9328 23.8085 33.125 23.8085H35.9199C36.1121 23.8085 36.2964 23.7322 36.4323 23.5963C36.5682 23.4604 36.6445 23.2761 36.6445 23.0839V14.8027ZM35.0918 22.3593H33.8496V15.5273H35.0918V22.3593ZM34.4856 9.4798C34.0702 9.4798 33.6642 9.60298 33.3188 9.83376C32.9734 10.0645 32.7042 10.3926 32.5452 10.7763C32.3863 11.1601 32.3447 11.5824 32.4257 11.9898C32.5068 12.3972 32.7068 12.7714 33.0006 13.0651C33.2943 13.3589 33.6685 13.5589 34.0759 13.6399C34.4833 13.7209 34.9056 13.6793 35.2894 13.5204C35.6732 13.3614 36.0012 13.0922 36.2319 12.7468C36.4627 12.4014 36.5859 11.9953 36.5858 11.5799C36.5852 11.0231 36.3637 10.4893 35.97 10.0956C35.5762 9.70189 35.0424 9.48043 34.4856 9.4798ZM34.4856 12.2309C34.3569 12.2309 34.231 12.1928 34.1239 12.1212C34.0169 12.0497 33.9334 11.948 33.8842 11.8291C33.8349 11.7101 33.822 11.5792 33.8471 11.4529C33.8722 11.3266 33.9342 11.2106 34.0253 11.1196C34.1163 11.0285 34.2323 10.9665 34.3586 10.9414C34.4849 10.9163 34.6158 10.9292 34.7347 10.9785C34.8537 11.0277 34.9554 11.1112 35.0269 11.2182C35.0984 11.3253 35.1366 11.4512 35.1366 11.5799C35.1363 11.7525 35.0676 11.9179 34.9456 12.0399C34.8236 12.1619 34.6582 12.2306 34.4856 12.2309Z" fill="black"/>
<path d="M49.8469 13.6798L47.0294 13.408C46.7213 12.229 46.2439 11.101 45.6123 10.0589L47.3966 7.90476C47.5113 7.76619 47.5703 7.58992 47.5623 7.41023C47.5542 7.23054 47.4796 7.06027 47.3529 6.93255L44.2267 3.7748C44.0993 3.64591 43.9282 3.56946 43.7472 3.56053C43.5661 3.5516 43.3883 3.61084 43.2488 3.72656L41.0896 5.51738C40.0443 4.89206 38.9165 4.41647 37.7391 4.1045L37.4675 1.28887C37.4507 1.10823 37.3678 0.940146 37.2347 0.816895C37.1015 0.693645 36.9276 0.623915 36.7462 0.621094H32.264C32.0826 0.623907 31.9087 0.693583 31.7756 0.816749C31.6425 0.939916 31.5596 1.1079 31.5428 1.28846L31.2711 4.09777C30.0905 4.40397 28.9604 4.87978 27.9163 5.51034L25.7609 3.72511C25.6219 3.61008 25.4451 3.55101 25.2649 3.55948C25.0846 3.56794 24.9141 3.64332 24.7865 3.77087L21.6222 6.93845C21.5399 7.0261 21.4786 7.13129 21.4428 7.24609H7.46627C4.73449 7.24609 2.48438 9.44891 2.48438 12.1807V47.2031H2.51667C2.51471 47.3066 2.51232 47.3425 2.51232 47.4007C2.51285 48.7167 3.03421 49.979 3.9625 50.9118C4.89078 51.8446 6.15052 52.372 7.46648 52.3789H35.7278C35.921 52.3725 36.1039 52.2902 36.2368 52.1498C36.3696 52.0094 36.4418 51.8222 36.4375 51.6289V43.8906H37.984C38.1765 43.8917 38.3615 43.8164 38.4985 43.6812C38.6355 43.5461 38.7133 43.3621 38.7148 43.1696V28.8801C39.5455 28.5921 40.3438 28.2183 41.0969 27.7649L43.2501 29.5516C43.3888 29.6667 43.5655 29.7259 43.7455 29.7176C43.9256 29.7093 44.0961 29.6341 44.2236 29.5067L47.3875 26.3495C47.5153 26.2219 47.5909 26.0511 47.5993 25.8706C47.6078 25.6902 47.5486 25.5131 47.4332 25.3741L45.6443 23.2167C46.2691 22.1726 46.7451 21.0463 47.0585 19.8705L49.8473 19.599C50.0281 19.5822 50.1962 19.4992 50.3195 19.366C50.4429 19.2328 50.5127 19.0588 50.5156 18.8773V14.4011C50.5126 14.2196 50.4426 14.0457 50.3192 13.9126C50.1958 13.7795 50.0276 13.6966 49.8469 13.6798ZM3.93359 12.1807C3.93359 10.248 5.53363 8.69531 7.46627 8.69531H9.10938V42.4414H7.46648C6.14341 42.4484 4.87551 42.9724 3.93359 43.9016V12.1807ZM34.9883 50.9297H7.46648C6.53304 50.9297 5.63783 50.5589 4.97779 49.8988C4.31775 49.2388 3.94695 48.3436 3.94695 47.4102C3.94695 46.4767 4.31775 45.5815 4.97779 44.9215C5.63783 44.2614 6.53304 43.8906 7.46648 43.8906H34.9883V50.9297ZM10.5586 42.4414V8.69531H22.2155L23.3651 10.0721C22.7404 11.1143 22.2645 12.2387 21.951 13.4127L19.1612 13.6819C18.9846 13.6998 18.8213 13.7838 18.7042 13.9172C18.587 14.0505 18.5247 14.2233 18.5297 14.4007V18.8769C18.5247 19.0546 18.5869 19.2276 18.704 19.3613C18.8211 19.4951 18.9844 19.5796 19.1612 19.5981L21.9602 19.8699C22.2652 21.0485 22.7394 22.1766 23.368 23.2191L21.5791 25.3731C21.4636 25.512 21.4041 25.689 21.4124 25.8695C21.4206 26.0499 21.4959 26.2208 21.6236 26.3486L24.7871 29.5058C24.9148 29.6331 25.0853 29.7083 25.2654 29.7166C25.4455 29.7249 25.6223 29.6657 25.7611 29.5507L27.9203 27.7599C28.9656 28.3852 30.0934 28.8608 31.2707 29.1728L31.5422 31.9636C31.5599 32.1418 31.6438 32.3068 31.7774 32.4261C31.911 32.5453 32.0845 32.6101 32.2635 32.6074H36.7458C36.9456 32.6074 37.1617 32.5502 37.2652 32.4178V42.4414H10.5586ZM49.0664 18.2201L46.4202 18.4775C46.2674 18.4922 46.123 18.5546 46.0074 18.6558C45.8919 18.757 45.8111 18.892 45.7765 19.0416C45.4693 20.4088 44.9181 21.7093 44.1494 22.8809C44.0648 23.0103 44.0238 23.1633 44.0324 23.3177C44.041 23.472 44.0987 23.6196 44.1971 23.7388L45.8969 25.7899L43.6666 28.0155L41.6144 26.3137C41.4947 26.2144 41.3462 26.1563 41.1909 26.1479C41.0356 26.1395 40.8817 26.1813 40.752 26.2671C39.5854 27.04 38.2841 27.5872 36.9156 27.8802C36.7661 27.9098 36.6301 27.9866 36.5276 28.0994C36.4251 28.2122 36.3615 28.3549 36.3463 28.5065L36.0884 31.1582H32.9214L32.6632 28.5065C32.6482 28.354 32.5847 28.2103 32.4821 28.0964C32.3795 27.9826 32.2431 27.9046 32.0929 27.8739C30.7247 27.5726 29.4225 27.0254 28.2497 26.259C28.1201 26.1761 27.9675 26.1365 27.814 26.1461C27.6604 26.1557 27.5139 26.2139 27.3956 26.3123L25.3435 28.0145L23.1137 25.7897L24.8144 23.7388C24.9137 23.6189 24.9719 23.4701 24.9801 23.3146C24.9883 23.1591 24.9461 23.005 24.8599 22.8753C24.0856 21.711 23.5365 20.4119 23.2409 19.0452C23.2133 18.897 23.1384 18.7617 23.0276 18.6595C22.9167 18.5573 22.7757 18.4937 22.6257 18.4783L19.9785 18.2194V15.0589L22.6257 14.8001C22.7765 14.7851 22.9186 14.7223 23.0312 14.6208C23.1439 14.5194 23.2211 14.3846 23.2518 14.2362C23.5556 12.8695 24.1036 11.5689 24.8694 10.3969C24.9535 10.2671 24.9938 10.1138 24.9845 9.95943C24.9752 9.80507 24.9167 9.65773 24.8177 9.53897L23.115 7.48842L25.3441 5.26284L27.3958 6.96422C27.5155 7.06344 27.6639 7.12153 27.8192 7.12992C27.9744 7.1383 28.1282 7.09654 28.2579 7.0108C29.4245 6.23786 30.7258 5.6907 32.0942 5.39772C32.2455 5.36272 32.3819 5.28097 32.4841 5.16408C32.5863 5.04719 32.649 4.90109 32.6635 4.7465L32.9214 2.07031H36.0884L36.3466 4.74692C36.3613 4.90091 36.4243 5.04629 36.5268 5.1622C36.6292 5.2781 36.7658 5.35856 36.9168 5.39203C38.2853 5.69567 39.5875 6.24498 40.76 7.01329C40.8893 7.09668 41.0417 7.13676 41.1953 7.12774C41.3489 7.11871 41.4956 7.06104 41.6142 6.96308L43.6631 5.26543L45.86 7.48532L44.1569 9.53928C44.0574 9.65923 43.9993 9.80804 43.991 9.96365C43.9828 10.1193 44.025 10.2734 44.1113 10.4031C44.8856 11.5674 45.4347 12.8665 45.7302 14.2332C45.7659 14.3841 45.848 14.52 45.965 14.6217C46.082 14.7235 46.228 14.7859 46.3824 14.8003L49.0664 15.059V18.2201Z" fill="black"/>
<path d="M34.4888 6.79547C32.5425 6.79815 30.6406 7.37775 29.0236 8.46102C27.4066 9.54429 26.1471 11.0826 25.4041 12.8815C24.6611 14.6805 24.4681 16.6593 24.8495 18.5679C25.2308 20.4765 26.1694 22.2292 27.5466 23.6045C28.9238 24.9798 30.6778 25.916 32.5869 26.2947C34.4961 26.6735 36.4746 26.4777 38.2725 25.7323C40.0704 24.9868 41.607 23.7251 42.6881 22.1066C43.7691 20.4882 44.3461 18.5855 44.3461 16.6392C44.3414 14.0276 43.3009 11.5245 41.4529 9.67907C39.6049 7.83366 37.1004 6.79662 34.4888 6.79547ZM34.4888 25.0336C32.8291 25.0309 31.2075 24.5363 29.8288 23.6123C28.4501 22.6882 27.3763 21.3762 26.743 19.8421C26.1097 18.308 25.9454 16.6205 26.2708 14.9931C26.5963 13.3656 27.3969 11.8711 28.5714 10.6985C29.7459 9.52583 31.2417 8.72769 32.8697 8.40489C34.4977 8.0821 36.1849 8.24914 37.718 8.88491C39.2511 9.52069 40.5613 10.5967 41.4831 11.9768C42.4049 13.357 42.8969 14.9795 42.8969 16.6392C42.8926 18.8666 42.0049 21.0013 40.4286 22.575C38.8524 24.1487 36.7162 25.0329 34.4888 25.0336Z" fill="black"/>
</svg>
